<?xml version="1.0"?>
<svg width="1280" height="640" xmlns="http://www.w3.org/2000/svg" xmlns:svg="http://www.w3.org/2000/svg" preserveAspectRatio="xMidYMid meet">
 <metadata>Created by potrace 1.15, written by Peter Selinger 2001-2017</metadata>
 <g class="layer">
  <title>Layer 1</title>
  <g fill="#000000" id="svg_1" transform="translate(0 640) scale(0.1 -0.1)">
   <path d="m6453,6161c-8,-7 11,-54 29,-74c9,-10 30,-20 49,-23c35,-7 63,-30 46,-40c-5,-3 -16,-3 -24,0c-10,3 -20,-3 -27,-15c-14,-28 -63,-28 -81,0c-11,15 -34,23 -94,34c-69,11 -74,13 -35,14c72,2 121,13 127,28c3,8 -6,27 -21,41l-27,27l-527,-1c-832,-2 -1745,-40 -2132,-90c-441,-57 -772,-186 -984,-385c-70,-65 -215,-249 -278,-354c-20,-33 -46,-89 -58,-125c-38,-115 -205,-442 -247,-485c-21,-22 -72,-56 -113,-76c-75,-36 -179,-111 -300,-215c-76,-66 -115,-87 -190,-104c-254,-58 -434,-129 -500,-198c-55,-59 -62,-96 -70,-392c-4,-146 -10,-273 -15,-283c-4,-10 -24,-26 -44,-36c-20,-11 -44,-27 -53,-37c-25,-28 -58,-158 -65,-255c-6,-84 -5,-86 23,-118c24,-26 40,-33 94,-42c35,-5 75,-7 88,-4c23,6 24,4 19,-23c-7,-37 -1,-43 30,-31c33,12 74,-7 147,-70c34,-29 63,-46 66,-41c4,7 17,3 33,-10c33,-27 101,-50 143,-50c25,0 38,-7 50,-25c9,-14 23,-25 30,-25c17,0 17,3 2,51c-10,35 -9,42 16,78c21,31 29,56 36,127c9,84 28,132 57,141c21,7 26,-36 34,-292c4,-143 13,-291 19,-328c23,-143 98,-289 164,-321c35,-17 38,-17 69,1c66,39 111,182 124,391c6,106 6,107 -14,90c-26,-24 -43,-23 -43,2c0,16 -5,19 -24,14c-26,-6 -44,12 -28,28c6,6 25,13 44,17c18,4 34,14 36,23c3,18 -25,51 -38,43c-16,-10 -40,41 -47,93c-4,39 -2,58 12,78c17,26 17,26 36,8c10,-11 30,-62 44,-115c14,-53 37,-124 51,-158c34,-85 41,-190 20,-311c-32,-184 -86,-309 -167,-385c-73,-68 -111,-61 -209,39c-59,60 -69,64 -123,41c-25,-10 -72,-15 -154,-15c-110,0 -281,-15 -292,-26c-3,-2 4,-11 15,-18c18,-14 18,-15 -8,-25c-15,-6 -56,-18 -90,-26c-35,-9 -67,-20 -72,-25c-4,-4 23,-11 60,-15c38,-4 75,-11 82,-15c15,-8 -232,-20 -438,-21c-155,-1 -211,-12 -107,-22c65,-6 297,-16 858,-37c147,-5 280,-15 295,-20c16,-6 44,-9 62,-5c31,6 32,5 26,-19c-7,-30 15,-36 36,-11c14,17 104,21 145,5c23,-9 24,-12 13,-30c-17,-26 4,-43 44,-36c15,3 46,-1 70,-10c23,-8 109,-25 190,-38c82,-14 167,-33 189,-44c35,-17 39,-18 37,-3c-2,12 4,15 27,13c45,-5 54,-20 25,-42c-14,-10 -23,-21 -20,-23c3,-2 50,9 105,25c107,31 156,33 90,4c-22,-10 -160,-60 -306,-111c-146,-52 -396,-142 -555,-200c-433,-160 -990,-356 -1460,-515c-389,-132 -487,-169 -457,-170c45,-1 703,218 1433,478c685,244 838,298 972,343c196,65 550,170 555,165c3,-2 -13,-16 -34,-30c-42,-29 -45,-28 78,-26c51,1 90,-4 115,-15c22,-9 104,-25 184,-36c166,-22 194,-30 224,-62c17,-18 47,-28 136,-46c63,-12 131,-30 150,-41c77,-41 102,-50 196,-71c54,-11 134,-34 179,-51c137,-51 156,-53 221,-33c45,14 73,16 138,11c106,-9 253,-40 395,-83c166,-50 214,-59 462,-93c340,-47 671,-105 769,-136c25,-7 133,-25 241,-39c107,-13 213,-32 233,-40c21,-9 45,-14 53,-11c8,3 121,-2 251,-11c275,-19 1264,-24 1789,-9c308,9 312,9 390,-14c94,-27 138,-20 138,21c0,38 48,47 342,63c439,26 499,33 1004,125c373,68 358,68 506,25c28,-8 67,30 60,58c-5,18 -2,19 30,13c28,-5 40,-2 58,15c13,12 29,20 35,18c15,-5 -82,-199 -159,-316c-33,-50 -96,-162 -140,-249c-44,-88 -92,-172 -106,-187c-14,-15 -25,-29 -25,-32c0,-2 16,-4 35,-4c50,0 72,26 142,166c32,65 108,198 168,294c60,96 129,211 155,255l47,80l124,0c124,0 296,18 357,37c18,5 56,30 84,54c58,50 91,61 196,71c40,3 69,9 65,13c-4,5 -72,22 -151,40c-175,38 -281,72 -348,111c-61,34 -64,35 -64,10c0,-24 -18,-37 -32,-23c-14,14 -2,75 20,102c16,20 19,20 67,5c72,-21 75,-19 21,15c-43,28 -47,34 -41,58c10,42 218,369 384,607c43,61 100,150 127,200c61,111 115,170 169,183c22,6 107,13 188,16c136,6 187,15 187,34c-1,30 -23,36 -183,48c-223,16 -246,29 -266,153c-16,100 -26,94 -34,-21c-6,-80 -29,-126 -77,-150c-39,-20 -133,-24 -174,-8c-23,8 -25,7 -23,-13c1,-17 -3,-21 -18,-19c-37,6 -66,32 -60,52c5,15 2,17 -14,13c-24,-6 -100,62 -85,77c5,4 40,13 77,19c80,12 97,23 97,62c0,38 -23,49 -107,50c-78,1 -137,18 -141,42c-3,12 7,18 38,23c22,4 43,11 47,17c10,17 -28,37 -72,37c-23,0 -46,5 -53,12c-16,16 -14,94 3,143c8,22 15,66 15,97c0,96 47,192 102,210c7,3 11,23 10,51c-2,31 3,55 15,74c28,42 24,199 -7,277c-32,83 -99,149 -167,165c-94,23 -174,-18 -257,-131c-26,-35 -61,-72 -78,-82c-27,-17 -31,-17 -45,-3c-20,20 -9,49 64,169c29,47 53,90 53,96c0,5 -39,14 -87,20c-73,8 -52,9 117,5c113,-3 203,-3 200,-1c-9,9 -211,57 -305,73c-267,44 -993,90 -1090,68c-32,-7 -40,-14 -39,-31c1,-23 -20,-29 -46,-12c-12,8 -12,11 3,27c16,18 15,20 -28,31c-37,10 -52,21 -78,59c-74,109 -125,152 -252,213c-140,68 -250,106 -349,122c-52,8 -77,17 -94,34c-29,31 -47,30 -76,-1c-20,-22 -25,-23 -36,-11c-6,8 -9,24 -5,35c5,16 3,20 -9,15c-17,-7 -27,-37 -23,-68c3,-30 -22,-31 -33,-1c-15,38 -53,50 -275,81c-176,25 -238,28 -513,32c-298,3 -313,4 -307,22c8,25 -1,29 -90,40c-55,7 -126,5 -258,-5c-100,-8 -250,-15 -333,-15c-122,0 -165,-4 -214,-19l-61,-19l-23,25c-34,37 -134,46 -431,39c-246,-5 -401,-21 -360,-36c34,-13 185,-29 330,-35c300,-14 280,-45 -35,-56c-541,-18 -680,-20 -680,-12c0,5 17,14 38,20l37,10l-41,2c-82,2 -105,12 -120,47c-19,46 -56,46 -99,0c-29,-32 -35,-34 -120,-40c-205,-15 -659,-80 -722,-103c-12,-4 357,-9 820,-9c733,-1 926,-5 1487,-28c725,-30 1260,-47 1287,-40c36,9 185,-14 202,-31c15,-15 15,-17 -3,-30c-31,-24 -116,-27 -256,-11c-415,48 -1515,93 -2460,102c-602,6 -660,4 -853,-23c-23,-3 -43,-1 -50,6c-15,15 -98,14 -190,-4c-108,-21 -115,-20 -91,6l19,22l-92,-7c-62,-5 -93,-4 -93,3c0,23 27,30 310,81c168,31 356,77 347,86c-5,6 -167,-18 -494,-71c-474,-78 -484,-79 -1003,-79c-256,-1 -482,3 -502,7c-24,5 -38,14 -38,23c0,13 -3,13 -22,0c-25,-18 -95,-21 -118,-6c-12,7 -8,12 20,22l35,12l-30,7c-16,4 -66,8 -110,9c-79,3 -79,3 -30,11c28,4 232,15 455,24c485,19 572,27 607,55c14,11 31,20 37,20c6,0 27,13 46,29c54,44 97,63 204,91c109,27 137,50 63,48c-31,0 -55,6 -75,21c-37,26 -49,26 -57,1c-7,-21 -46,-36 -65,-25c-6,4 -9,14 -6,22c4,9 -1,17 -14,20c-11,3 -23,16 -26,30c-8,31 2,152 22,253c7,41 20,118 28,170l14,94l-27,58c-22,49 -32,60 -61,69c-20,7 -167,14 -351,18c-291,5 -319,8 -338,25c-17,16 -30,17 -85,12c-39,-5 -66,-4 -70,3c-4,5 -2,12 3,15c19,12 286,36 621,56c589,35 1310,96 1375,117c16,5 10,9 -28,20c-26,7 -47,18 -47,23c0,9 59,29 95,31c11,1 0,5 -25,10c-66,11 -496,10 -635,-2c-222,-19 -318,-49 -345,-106c-8,-18 -17,-33 -20,-33c-3,0 -14,19 -25,43c-18,38 -23,42 -55,41c-87,-2 -349,-47 -407,-70c-80,-32 -154,-44 -279,-45c-111,-1 -144,5 -144,26c0,41 133,71 525,119c545,68 1102,103 1746,113c423,6 500,3 480,-21c-13,-15 -4,-26 21,-26c33,0 19,-19 -19,-26c-106,-18 -190,-37 -208,-47c-17,-10 -13,-13 35,-18c86,-11 274,-10 535,2c254,12 338,9 850,-32c268,-21 379,-34 435,-51c60,-18 54,-26 -17,-22c-747,40 -1250,35 -2408,-22c-642,-31 -758,-45 -838,-98c-53,-36 -49,-72 34,-336c55,-175 136,-403 170,-478c36,-80 61,-92 192,-92c134,0 529,59 542,81c3,4 -4,13 -15,19c-25,14 -312,14 -400,0c-155,-24 -147,-24 -154,-3c-11,35 30,143 138,360l105,212l-45,95c-24,52 -45,111 -47,132l-2,38l50,9c63,10 352,1 392,-14c24,-8 32,-18 37,-42c4,-19 33,-65 71,-111c121,-144 233,-324 270,-435c18,-51 27,-66 41,-64c24,2 34,-14 34,-53c0,-37 13,-44 76,-44c39,0 45,3 40,18c-20,66 -86,365 -86,389c0,39 25,60 140,117c52,26 112,61 134,78c33,27 52,33 144,45c63,8 113,19 121,28c22,22 -2,92 -40,113c-16,10 -29,20 -29,25c0,4 30,7 68,7c58,-1 65,-2 50,-14c-22,-17 -23,-36 -1,-80c24,-51 54,-60 183,-51c88,5 111,4 114,-7c2,-7 24,-126 49,-263c24,-138 50,-264 58,-280c12,-25 20,-30 46,-27c22,2 38,-3 53,-18c18,-18 31,-20 93,-18l72,3l0,57c0,31 3,59 7,63c48,49 288,-17 328,-90c14,-25 24,-31 58,-33c23,-2 42,1 42,6c0,11 -77,77 -120,103c-44,28 -133,56 -210,68c-41,6 -83,14 -93,17c-24,8 -43,48 -68,150c-29,117 -57,172 -127,242c-63,65 -103,89 -165,101c-34,6 -38,10 -22,15c38,14 50,24 47,40c-4,23 6,23 248,6c80,-5 190,-10 246,-10c116,0 160,-11 168,-44c5,-22 62,-56 92,-56c30,0 71,-53 78,-103c16,-105 60,-247 77,-247c14,0 11,66 -8,136c-9,35 -14,66 -10,70c10,11 32,-13 51,-55c10,-21 29,-44 42,-50c13,-6 24,-19 24,-28c0,-18 171,-315 209,-365c12,-14 21,-29 21,-32c0,-3 -44,-6 -97,-7c-54,0 -93,-2 -88,-4c6,-2 29,-9 53,-15c32,-8 42,-16 42,-31c0,-33 -45,-42 -265,-48c-136,-4 -194,-9 -165,-13c52,-8 518,-29 600,-27l55,2l-50,7c-27,5 -72,9 -99,9c-44,1 -47,3 -35,18c20,23 85,50 144,58c28,4 56,11 62,17c18,14 5,30 -18,23c-16,-5 -19,-1 -19,22c0,29 -10,50 -67,145c-18,29 -33,59 -33,67c0,25 37,-17 147,-167c58,-79 107,-141 110,-138c2,2 -44,82 -103,178c-314,508 -394,638 -418,685c-29,58 -58,82 -166,141c-252,137 -466,182 -1016,217c-133,8 -253,19 -267,24c-14,5 -27,7 -30,4zm351,-140c-15,-2 -42,-2 -60,0c-18,2 -6,4 27,4c33,0 48,-2 33,-4zm212,-23c11,-7 3,-10 -28,-10c-26,0 -41,4 -37,10c8,13 45,13 65,0zm943,-359c24,-36 26,-51 6,-51c-17,0 -39,33 -39,61c0,16 2,29 4,29c2,0 15,-18 29,-39zm108,-181c12,-40 9,-80 -6,-82c-19,-2 -46,61 -51,119l-5,58l25,-30c15,-16 31,-46 37,-65zm-3192,11c38,-55 60,-71 96,-71c48,0 42,19 -14,46c-43,21 -44,21 -17,28c24,6 78,1 113,-9c19,-6 -126,-321 -204,-443c-26,-42 -38,-53 -56,-50c-19,3 -33,34 -109,258c-48,140 -88,260 -88,265c0,6 47,8 131,5c124,-5 132,-6 148,-29zm-684,-209c-15,-127 -41,-271 -50,-281c-16,-15 -1,145 25,269c16,80 30,147 30,149c0,2 2,2 5,-1c3,-3 -1,-64 -10,-136zm-1575,115c0,-7 -11,-28 -25,-47l-25,-34l0,35c0,36 14,59 37,59c7,0 13,-6 13,-13zm5541,-39c11,-22 18,-42 16,-45c-7,-6 -43,47 -52,76c-11,36 12,17 36,-31zm-4806,-11c0,-15 -4,-28 -9,-29c-14,-5 -30,28 -23,46c10,26 32,14 32,-17zm374,-109c-1,-63 -2,-68 -10,-38c-8,32 -3,110 7,110c2,0 4,-33 3,-72zm371,37c0,-14 -4,-25 -10,-25c-5,0 -10,11 -10,25c0,14 5,25 10,25c6,0 10,-11 10,-25zm-1586,-297c-33,-66 -69,-91 -54,-37c13,44 64,109 68,87c2,-9 -4,-32 -14,-50zm1476,52c-8,-5 -24,-10 -35,-10c-11,0 -27,5 -35,10c-11,7 -1,10 35,10c36,0 46,-3 35,-10zm-1692,-319c4,-42 1,-52 -13,-57c-37,-15 -57,52 -35,112c10,25 12,26 27,11c9,-8 18,-38 21,-66zm3577,-12c8,-25 3,-31 -19,-23c-20,8 -21,44 -2,44c8,0 18,-9 21,-21zm-118,-16c-20,-2 -52,-2 -70,0c-17,2 0,4 38,4c39,0 53,-2 32,-4zm3225,-50c15,-15 28,-33 28,-40c0,-18 -113,-73 -149,-73c-41,0 -156,51 -139,61c7,5 56,9 108,9c138,0 161,10 123,52c-25,28 -2,21 29,-9zm-6635,-44c6,-6 32,-16 59,-24l49,-13l-107,-1c-60,-1 -108,3 -108,8c0,9 65,39 86,40c5,1 15,-4 21,-10zm6938,-9c4,-6 -8,-10 -30,-10c-22,0 -34,4 -30,10c3,6 17,10 30,10c13,0 27,-4 30,-10zm-5976,-31c119,-19 105,-31 -29,-26c-127,5 -164,12 -154,28c7,12 104,11 183,-2zm2194,-1c-15,-7 -30,-7 -50,0c-26,10 -24,10 22,11c42,0 46,-2 28,-11zm3706,-14c42,-9 40,-24 -4,-24c-23,0 -41,-8 -55,-22c-17,-19 -34,-23 -93,-26c-76,-4 -131,10 -124,31c2,6 15,11 28,9c13,-1 51,7 84,17c63,21 112,25 164,15zm400,-19c8,-8 13,-17 10,-20c-8,-7 -89,27 -89,38c0,14 62,0 79,-18zm-152,-66c34,-12 83,-58 83,-76c0,-38 -155,-76 -290,-71c-70,2 -85,6 -88,20c-6,33 39,49 167,55c67,3 121,10 121,14c0,5 -13,18 -30,30c-45,34 -23,51 37,28zm-602,-8c-14,-12 -103,-22 -109,-12c-10,15 7,21 63,21c32,0 51,-4 46,-9zm-3876,-82c57,-20 75,-94 32,-133c-23,-21 -119,-41 -153,-33c-57,15 -73,60 -42,118c26,51 96,71 163,48zm336,-19c48,-11 65,-32 65,-79l0,-36l-15,30c-24,45 -43,55 -110,55c-137,0 -119,-76 23,-100c43,-7 40,-8 -34,-9c-95,-1 -118,10 -116,59c1,40 16,57 68,75c46,17 66,18 119,5zm383,-17c69,-33 78,-89 19,-114c-34,-15 -164,-19 -209,-6c-59,16 -37,94 35,128c47,22 98,19 155,-8zm-3082,-76c35,-30 26,-43 -37,-56c-83,-18 -114,-15 -127,14c-12,27 -46,44 -90,46c-59,3 44,16 135,18c83,1 95,-1 119,-22zm2895,-158c-9,-23 -10,-22 -10,11c-1,23 2,31 9,24c7,-7 7,-19 1,-35zm311,29c-8,-8 -17,-8 -34,0c-22,10 -21,11 12,11c26,1 31,-2 22,-11zm4586,-28c130,-35 149,-50 65,-50c-86,0 -253,53 -253,81c0,14 53,5 188,-31zm-5522,7c18,-18 -21,-30 -108,-35c-55,-2 -110,0 -135,7c-45,12 -55,26 -25,34c27,8 259,3 268,-6zm2444,-18c295,-19 498,-55 695,-121c120,-40 150,-64 108,-87c-34,-17 -314,-71 -373,-71c-45,0 -74,7 -112,26c-30,15 -47,29 -41,35c5,5 55,20 112,34c219,54 225,77 34,109c-193,33 -476,60 -798,76c-336,16 -343,18 -45,13c151,-2 340,-8 420,-14zm3711,-26c6,-16 29,-47 51,-70c23,-24 39,-46 35,-49c-4,-4 -25,1 -48,11c-33,15 -44,16 -60,7c-10,-7 -21,-12 -24,-12c-7,0 -6,105 1,124c10,25 33,19 45,-11zm-6567,7c-12,-12 -208,-30 -328,-30c-116,0 -102,15 24,28c134,13 316,14 304,2zm2331,-15c6,-2 -39,-3 -100,-3c-77,1 -95,3 -60,7c47,6 138,3 160,-4zm2925,-36c47,-21 80,-46 80,-61c0,-4 -46,-8 -102,-7c-57,0 -111,-2 -120,-6c-21,-8 -51,-72 -44,-92c9,-23 30,-10 36,23c6,28 6,29 18,7c28,-51 10,-93 -56,-128l-47,-25l41,6c30,4 49,1 67,-10c19,-13 38,-16 78,-11c50,6 52,5 35,-9c-44,-36 -167,-31 -213,8c-24,21 -27,32 -33,117c-3,52 -9,100 -14,107c-11,18 45,67 97,85c59,22 124,20 177,-4zm-4552,5c28,-4 52,-11 52,-15c0,-5 -159,-8 -352,-7l-353,1l165,12c191,14 412,18 488,9zm-1120,-21c-21,-2 -57,-2 -80,0c-24,2 -7,4 37,4c44,0 63,-2 43,-4zm2450,0c-32,-2 -84,-2 -115,0c-32,2 -6,3 57,3c63,0 89,-1 58,-3zm5241,-28c29,-7 64,-24 78,-36c58,-55 71,-245 23,-339c-63,-124 -139,-165 -227,-124c-45,22 -122,100 -139,141c-15,34 -17,150 -5,193l7,25l12,-22c7,-12 12,-35 12,-51c0,-23 5,-31 25,-36c14,-4 36,-4 50,0l25,6l-33,22c-42,29 -45,57 -11,128c26,54 26,59 11,76c-9,10 -17,22 -17,25c0,13 134,7 189,-8zm-8973,-40c18,-14 17,-14 -12,-9c-26,5 -32,2 -37,-15c-4,-18 -13,-21 -56,-21c-28,0 -51,4 -51,9c0,11 89,50 116,51c11,0 29,-7 40,-15zm3514,-5c768,-21 787,-22 852,-54c31,-16 71,-44 89,-62c37,-38 24,-45 -22,-12c-24,18 -43,22 -102,23c-124,0 -235,-68 -292,-181c-26,-52 -71,-94 -101,-94c-21,0 -23,28 -8,81c19,64 54,121 106,175l40,41l-29,7c-63,13 -550,25 -1303,30c-836,7 -1150,14 -1150,27c0,27 315,38 975,33c303,-2 728,-8 945,-14zm-1987,-6c10,-11 -5,-34 -22,-34c-9,0 -27,9 -41,20l-25,20l41,0c22,0 43,-3 47,-6zm5375,-75c3,-29 -12,-54 -27,-45c-12,8 -15,59 -4,70c12,12 28,0 31,-25zm-1408,13c0,-16 -35,-41 -77,-56c-109,-38 -400,-72 -391,-46c5,16 18,20 238,70c166,39 230,47 230,32zm2900,-2c24,-15 3,-24 -66,-28c-71,-5 -111,12 -58,23c16,4 34,8 39,10c21,7 71,4 85,-5zm-4780,-40c0,-14 -55,-40 -85,-40c-34,0 -33,26 3,38c36,14 82,15 82,2zm1224,0c14,-5 26,-17 26,-26c0,-14 -19,-15 -70,0c-3,0 -7,-3 -8,-9c-8,-22 -25,-33 -60,-39c-20,-4 -50,-9 -67,-12c-28,-6 -27,-4 19,32c42,32 102,62 128,64c4,0 18,-4 32,-10zm-480,-35c64,-19 146,-69 146,-90c0,-8 6,-15 14,-15c7,0 16,-10 20,-22c7,-29 8,-306 0,-333c-3,-12 -17,-26 -32,-33c-38,-16 -131,-101 -111,-102c8,0 35,13 60,28c69,44 77,46 39,12c-71,-65 -85,-70 -148,-53c-137,35 -268,124 -255,172c3,12 -3,31 -15,46c-11,14 -18,34 -15,44c7,28 -12,57 -49,72c-32,13 -32,13 -8,19c15,3 33,21 45,43l21,36l10,-32c8,-27 14,-32 44,-34c35,-3 35,-3 13,13c-26,19 -30,34 -8,34c8,0 15,9 15,21c0,27 16,55 57,104c18,21 33,46 32,55c-1,8 -1,18 0,23c2,12 70,8 125,-8zm2638,-33c10,-8 15,-19 12,-24c-7,-10 -64,39 -64,55c0,9 13,1 52,-31zm-2031,2c16,-20 -2,-34 -46,-34c-16,0 -36,4 -44,9c-23,15 5,41 44,41c18,0 38,-7 46,-16zm-776,-14c-19,-21 -55,-27 -55,-10c0,12 31,29 54,30c18,0 18,-1 1,-20zm4462,-88c-6,-80 -14,-97 -37,-82c-20,12 -19,84 3,133c26,60 41,38 34,-51zm-3033,29c9,-13 -15,-20 -117,-31c-51,-6 -120,-18 -154,-27c-63,-16 -197,-13 -216,6c-8,8 158,37 288,51c103,11 193,11 199,1zm-763,-21c32,-14 66,-20 127,-20c45,0 82,-4 82,-9c0,-14 -100,-35 -164,-33c-56,1 -151,25 -170,43c-14,13 23,38 55,39c15,0 46,-9 70,-20zm-251,-190c0,-16 -4,-30 -10,-30c-11,0 -14,43 -3,53c11,12 13,8 13,-23zm-617,-17c20,-23 33,-73 19,-73c-11,0 -71,47 -84,64c-20,29 40,36 65,9zm3782,7c173,-12 320,-34 387,-60c26,-10 77,-39 112,-64c71,-50 196,-169 196,-186c0,-21 -31,-8 -84,34c-30,25 -82,59 -116,76c-75,38 -191,66 -216,52c-13,-7 -7,-11 28,-16c43,-6 89,-38 71,-49c-4,-2 -42,1 -83,9c-41,7 -91,13 -111,14c-27,0 -41,6 -52,23l-14,22l-319,0c-209,-1 -395,-7 -539,-18c-121,-10 -332,-27 -470,-38c-325,-25 -575,-49 -598,-55c-10,-3 -16,-12 -13,-19c4,-11 -12,-13 -82,-8c-71,4 -118,-1 -256,-26c-92,-17 -176,-31 -185,-31c-41,0 -121,-33 -186,-76c-38,-25 -95,-58 -125,-74c-72,-37 -102,-70 -140,-154c-17,-38 -38,-75 -47,-81c-21,-16 -11,-84 16,-106c28,-23 180,-34 262,-19c115,21 175,56 164,97c-4,16 0,25 10,29c10,4 15,20 15,50c0,32 5,47 20,57c20,14 19,15 -17,21c-21,3 -53,6 -71,6c-41,0 -39,20 4,32c49,13 218,-17 348,-62c33,-11 62,-18 64,-15c3,3 -12,41 -32,84c-41,87 -44,124 -10,129c36,5 80,-43 113,-122c37,-88 74,-237 62,-249c-4,-4 -35,13 -67,38c-138,107 -165,114 -250,65c-49,-27 -94,-72 -94,-91c0,-17 19,-9 67,28c37,29 44,31 30,12c-40,-56 -43,-70 -18,-90l23,-19l-26,0c-15,0 -43,7 -63,15c-59,25 -101,13 -73,-20c14,-17 -1,-21 -107,-29c-54,-4 -93,-14 -150,-40c-102,-45 -197,-55 -623,-63c-179,-3 -331,-9 -339,-13c-11,-6 -9,-11 10,-21c20,-11 112,-13 502,-11c264,2 477,-1 477,-5c0,-5 -5,-14 -11,-20c-18,-18 -7,-87 14,-91c12,-3 20,4 24,17c5,19 7,19 33,6c43,-22 88,-81 95,-122c3,-21 10,-45 15,-54c7,-13 4,-18 -13,-22c-12,-3 -41,-13 -65,-21c-30,-12 -107,-19 -265,-26c-241,-11 -276,-15 -292,-37c-9,-12 -27,-7 -111,27c-115,46 -155,50 -176,19c-11,-17 -29,-23 -101,-30c-48,-5 -97,-14 -107,-19c-23,-12 -26,-52 -6,-69c11,-9 18,-6 33,14c11,16 34,30 58,35c45,11 185,11 230,1c30,-7 30,-7 -12,-14c-22,-4 -92,-23 -155,-43c-71,-22 -123,-33 -141,-30c-18,4 -38,-1 -54,-11c-20,-13 -29,-14 -44,-5c-11,7 -53,19 -94,27c-95,18 -173,51 -157,67c6,6 66,14 134,18c68,5 136,11 151,15c33,9 31,27 -4,35c-16,3 -32,21 -48,50l-23,45l6,-47c5,-40 3,-49 -14,-58c-24,-13 -127,-13 -135,0c-4,6 8,10 29,10c34,0 76,27 76,49c0,49 -15,74 -56,93c-63,28 -157,34 -223,14c-49,-14 -56,-14 -87,0c-38,18 -40,18 -108,-31c-26,-19 -59,-35 -73,-35c-39,0 -77,48 -107,136c-50,142 -93,168 -74,44c10,-66 -2,-150 -22,-150c-14,0 -47,52 -59,95c-15,56 -14,119 4,162c14,32 18,35 44,30c29,-6 30,-4 38,36l9,42l554,1c670,1 923,18 964,63c13,14 59,201 52,208c-1,2 -19,-20 -40,-47c-50,-65 -60,-71 -51,-29c12,53 89,205 136,265c151,195 454,280 1304,363c633,63 1171,84 1520,61zm-9551,-106c15,-38 -8,-204 -26,-186c-12,12 -22,143 -14,176c7,29 30,35 40,10zm5787,-34c23,-13 25,-48 4,-56c-21,-9 -45,14 -45,42c0,26 11,30 41,14zm3910,-152c23,-26 113,-208 123,-252c6,-25 1,-35 -29,-66c-43,-45 -45,-77 -3,-72c33,4 40,-9 63,-113c10,-44 24,-97 31,-119c19,-53 35,-161 28,-181c-6,-15 -8,-15 -25,1c-18,16 -19,16 -30,-15c-6,-18 -13,-30 -16,-28c-2,3 -11,49 -19,103c-8,54 -17,109 -21,123c-6,23 -7,24 -14,6c-4,-11 -8,-47 -9,-80c-1,-52 -3,-57 -12,-35c-9,20 -72,155 -86,182c-2,4 18,5 44,1c39,-5 49,-3 60,12c19,26 18,30 -10,43c-19,8 -27,23 -34,64c-6,29 -18,93 -27,143c-9,49 -29,121 -46,160c-31,75 -36,114 -17,133c17,17 24,15 49,-10zm-450,-25c47,-51 64,-80 89,-152c34,-101 22,-185 -24,-168c-46,18 -149,321 -119,350c11,12 18,8 54,-30zm242,-3c61,-66 90,-135 91,-212c1,-60 -2,-70 -26,-95c-31,-32 -35,-43 -14,-43c23,0 66,-40 81,-77c9,-20 19,-72 24,-115c7,-60 14,-85 31,-103c17,-18 20,-30 15,-55c-5,-23 -2,-36 11,-51c17,-18 16,-20 -6,-44c-26,-28 -50,-33 -50,-11c0,8 -10,16 -22,18c-19,3 -23,13 -34,74c-10,63 -28,114 -38,114c-2,0 -2,-26 0,-57c5,-59 -5,-91 -25,-79c-6,4 -11,18 -11,32c0,14 -11,36 -25,50c-14,14 -23,30 -19,35c3,5 -1,21 -10,34c-23,36 -20,45 17,45c46,0 56,14 46,60c-5,22 -15,85 -24,142c-15,110 -28,158 -69,253c-25,59 -33,105 -19,118c15,16 43,4 76,-33zm-450,-11c46,-53 90,-184 85,-254c-3,-43 -7,-52 -30,-62c-31,-16 -58,-8 -58,17c0,10 -18,78 -40,151c-44,145 -46,159 -28,177c20,20 35,14 71,-29zm-7185,5c2,-11 -4,-27 -13,-34c-22,-18 -39,1 -31,35c8,32 39,31 44,-1zm6916,-5c58,-50 116,-196 116,-291c0,-35 -2,-38 -29,-38c-17,0 -33,-4 -36,-10c-12,-19 -25,-10 -25,18c0,32 -21,97 -75,232c-20,50 -34,98 -31,106c9,23 43,16 80,-17zm-289,-31c37,-44 74,-128 91,-208c24,-115 16,-140 -41,-126c-18,5 -26,15 -31,44c-4,20 -29,90 -56,155c-26,65 -48,131 -48,146c0,52 37,47 85,-11zm1602,-12c-1,-32 4,-53 21,-75c28,-38 15,-41 -20,-3c-49,52 -59,89 -32,116c23,24 33,11 31,-38zm-1915,17c14,-16 35,-47 47,-71c47,-94 81,-299 47,-286c-17,7 -50,-36 -37,-49c5,-5 20,-14 32,-21c36,-18 68,-93 78,-180c10,-86 23,-110 41,-77c8,15 8,32 1,58c-6,20 -9,39 -7,41c3,2 27,-18 55,-45l50,-48l-5,-60c-8,-82 -7,-82 -59,-106c-25,-12 -45,-27 -45,-34c0,-35 -79,-24 -99,14c-6,11 -11,45 -11,76c0,31 -12,111 -26,178c-25,122 -33,166 -54,307c-6,41 -29,119 -50,174c-43,105 -47,125 -28,144c19,19 42,14 70,-15zm-312,-70c57,-57 88,-143 97,-267c6,-75 5,-78 -14,-72c-13,4 -25,1 -33,-9c-7,-9 -11,-16 -9,-18c2,-1 18,-9 34,-17c43,-21 73,-90 96,-217c22,-123 36,-173 50,-173c13,0 11,65 -6,145c-8,38 -15,73 -15,77c0,20 36,5 66,-27c41,-44 59,-101 43,-142c-23,-61 -125,-137 -176,-131l-28,3l-6,110c-3,69 -12,124 -22,149c-25,56 -44,136 -62,256c-18,121 -32,171 -74,268c-17,39 -31,80 -31,91c0,36 39,25 90,-26zm2532,37c21,-6 45,-18 55,-28c16,-16 13,-17 -51,-20c-65,-3 -69,-4 -117,-51c-49,-47 -63,-81 -34,-81c22,0 18,-37 -4,-50c-34,-18 -44,-12 -37,20c4,22 2,30 -8,30c-16,0 -22,24 -32,123l-6,67l98,0c55,0 116,-5 136,-10zm-8200,-62c-8,-8 -17,-8 -34,0c-22,10 -21,11 12,11c26,1 31,-2 22,-11zm683,-38c105,-5 202,-10 217,-10c21,0 26,-4 21,-17c-6,-15 3,-16 101,-9c59,4 121,9 139,12c50,8 15,-9 -88,-44l-90,-31l-155,25c-85,13 -216,36 -290,50c-149,28 -203,48 -105,39c33,-3 146,-10 250,-15zm1971,-16c28,-14 70,-42 94,-63c55,-47 50,-66 -19,-76c-90,-12 -157,-84 -216,-232c-135,-335 -39,-940 179,-1141c54,-49 82,-62 138,-62c129,0 220,150 267,439c26,153 26,154 65,144c17,-4 48,-7 69,-6l39,1l-25,-26c-33,-37 -45,-76 -62,-222c-24,-206 -65,-338 -147,-466c-125,-200 -300,-212 -462,-33c-169,187 -270,566 -269,1009c1,298 38,481 129,647c64,115 120,137 220,87zm5235,-24c10,-32 10,-43 0,-53c-17,-17 -31,8 -31,56c0,49 16,47 31,-3zm-6546,-30c-4,-12 -1,-28 7,-37c12,-14 5,-15 -67,-11c-44,2 -93,12 -109,20l-30,16l63,7c34,4 75,11 89,15c45,14 54,12 47,-10zm198,-10c35,-12 72,-32 86,-47c22,-26 23,-27 5,-41c-13,-9 -33,-12 -63,-8c-51,7 -69,19 -73,49c-2,17 -12,23 -41,28c-42,7 -52,13 -42,28c10,17 59,13 128,-9zm6817,-90c-17,-39 -29,-79 -25,-89c4,-15 -3,-22 -35,-35c-22,-8 -59,-18 -82,-22l-43,-5l25,21c14,12 41,31 60,43c27,18 39,35 52,77c17,53 68,115 76,92c2,-6 -11,-43 -28,-82zm-9740,-42c0,-24 -38,-98 -49,-98c-13,0 -24,101 -16,140l7,32l29,-28c16,-15 29,-36 29,-46zm8524,22c36,-13 61,-69 91,-206c15,-65 32,-141 38,-168c11,-47 11,-49 -16,-72c-58,-50 -81,-27 -92,88c-4,38 -25,121 -51,195c-24,70 -44,135 -44,144c0,27 32,35 74,19zm812,-67c0,-38 7,-87 14,-110c13,-38 12,-44 -4,-62c-18,-20 -94,-36 -125,-26c-27,8 -31,37 -15,103c23,98 22,102 -36,102c-57,0 -62,8 -21,33c36,21 58,21 104,2c38,-16 62,-12 71,11c10,25 12,15 12,-53zm-1036,37c11,-6 36,-42 57,-82c24,-46 47,-77 67,-87c58,-31 66,-46 66,-117c0,-81 -13,-81 -55,-1c-16,31 -33,57 -37,57c-13,0 -9,-44 7,-90c8,-23 15,-55 15,-71c0,-28 -30,-69 -50,-69c-5,0 -10,9 -10,20c0,22 -15,27 -23,8c-4,-10 -8,-10 -15,1c-16,22 -31,115 -42,256c-6,71 -13,131 -15,134c-3,2 -11,-2 -20,-9c-13,-11 -15,-8 -15,17c0,16 3,33 7,36c10,10 42,8 63,-3zm-570,-35c18,-9 40,-36 56,-66c31,-61 64,-187 64,-242c0,-34 6,-46 40,-77c59,-55 53,-74 -15,-46c-40,17 -55,8 -75,-43c-12,-31 -14,-32 -27,-15c-17,23 -17,68 1,83c12,10 10,22 -10,79c-28,82 -84,296 -84,323c0,23 11,24 50,4zm340,-14c31,-22 49,-71 49,-133c1,-55 13,-66 46,-44c13,9 38,16 55,16c26,0 33,-6 46,-35c19,-47 18,-88 -5,-116c-21,-26 -19,-27 -36,26c-2,8 -16,15 -30,15c-14,0 -25,5 -25,10c0,6 -4,10 -10,10c-16,0 -12,-87 5,-104c21,-21 19,-32 -12,-56c-18,-14 -38,-20 -62,-18l-36,3l-12,119c-7,65 -24,160 -38,211c-33,124 -33,129 8,121c17,-3 43,-14 57,-25zm-4026,-58c-37,-43 -71,-82 -75,-87c-6,-6 -9,-3 -9,7c0,17 126,157 142,157c5,0 -21,-35 -58,-77zm5986,38c0,-11 -33,-24 -155,-61c-138,-41 -185,-60 -185,-72c0,-19 98,1 245,49c77,25 145,47 151,50c5,2 21,-18 33,-45c29,-61 19,-85 -46,-114c-36,-16 -78,-21 -203,-27c-102,-5 -164,-12 -174,-20c-12,-10 -17,-8 -31,13c-20,30 -45,110 -45,143c0,18 9,28 33,38c76,31 377,68 377,46zm-9981,-106c21,-19 44,-35 50,-35c7,0 11,-8 10,-17c-4,-46 3,-74 25,-99c23,-27 24,-28 50,-11c31,21 46,15 46,-16c0,-34 -17,-52 -47,-52c-23,0 -28,-4 -28,-25c0,-18 5,-25 20,-25c11,0 20,-7 20,-15c0,-15 -15,-17 -65,-9c-21,3 -25,0 -22,-18c5,-37 -27,-28 -73,20c-33,35 -47,62 -68,128c-37,121 -41,156 -22,185c22,34 58,31 104,-11zm6789,-1c31,-21 45,-51 53,-112c8,-60 12,-67 29,-57c8,5 10,22 7,46c-3,22 -2,39 3,39c4,0 24,-11 44,-25c107,-73 117,-87 87,-119c-14,-14 -22,-42 -26,-81c-4,-33 -9,-71 -11,-85c-5,-22 -7,-23 -15,-7c-13,23 -20,22 -63,-12c-21,-17 -43,-28 -51,-25c-8,4 -15,-5 -20,-25c-4,-17 -11,-31 -16,-31c-5,0 -9,2 -9,4c0,3 -9,81 -20,174c-27,235 -36,252 -99,193c-38,-35 -39,-61 -8,-139c13,-31 27,-71 30,-87l7,-30l-22,30l-23,29l-5,-29c-4,-23 -11,-30 -29,-29c-20,1 -22,-3 -17,-30c3,-17 2,-36 -2,-43c-12,-19 -60,-33 -139,-40l-74,-6l7,63c5,46 4,61 -5,56c-15,-9 -34,41 -26,71c7,28 59,39 118,26c39,-8 42,-11 40,-38l-2,-30l21,25c29,36 70,119 63,130c-4,6 -26,10 -51,10c-24,0 -44,5 -44,10c0,6 5,10 11,10c5,0 35,12 66,27c58,29 89,63 79,88c-19,49 61,85 112,49zm3598,5c32,-6 63,-14 67,-18c13,-12 -629,-976 -690,-1038c-18,-18 -33,-37 -33,-43c0,-16 -64,-40 -106,-40c-27,0 -37,5 -41,20c-7,27 -27,25 -48,-6c-15,-23 -21,-25 -58,-19c-65,10 -228,54 -261,70c-41,21 -49,19 -74,-15c-27,-35 -48,-41 -31,-7c22,41 73,98 105,117c17,11 49,20 70,20l39,1l-27,16c-39,25 -41,38 -17,110c24,72 81,150 133,182c57,36 121,115 156,194l33,75l183,36c326,65 374,93 425,244c21,63 64,112 98,112c9,0 44,-5 77,-11zm-1006,-24c15,-18 50,-19 85,-3c40,18 68,-2 95,-66c29,-74 22,-101 -33,-126c-23,-11 -61,-20 -83,-20l-41,0l-13,76c-6,43 -18,94 -26,115c-13,40 -6,51 16,24zm-3235,-30c0,-15 -8,-21 -32,-23c-37,-4 -41,3 -16,30c21,23 48,19 48,-7zm485,-3c0,-8 -71,-52 -84,-52c-17,0 -2,23 27,40c34,21 57,26 57,12zm-397,-32c17,-19 37,-30 54,-30c14,0 35,-7 45,-17c36,-32 13,-133 -31,-133c-40,0 -111,118 -111,185c0,33 11,32 43,-5zm1633,5c29,-45 43,-97 32,-121c-12,-26 -34,-38 -44,-23c-11,18 -34,113 -34,142c0,35 24,36 46,2zm-3973,-88c-5,-82 -3,-97 16,-134c11,-23 21,-53 21,-67c0,-17 11,-33 30,-48c17,-12 30,-26 30,-30c0,-5 -16,-30 -35,-55c-39,-51 -52,-101 -36,-132c14,-24 39,-28 47,-6c9,22 24,18 24,-5c0,-10 9,-24 20,-30c37,-20 80,23 64,64c-8,22 2,20 26,-4c25,-25 35,-25 61,1c25,25 13,44 -34,55c-40,8 -57,21 -57,45c0,14 7,19 25,19c31,0 34,29 5,37c-47,12 -4,43 60,43c130,0 239,-155 185,-260c-11,-22 -28,-33 -61,-43l-47,-13l32,-13c38,-16 40,-28 6,-37c-29,-7 -48,6 -64,44c-13,31 -58,62 -89,62c-60,0 -42,-89 36,-172c32,-35 87,-39 97,-9c9,28 45,38 61,16c18,-25 0,-67 -47,-110c-58,-52 -84,-60 -137,-40c-79,31 -135,94 -160,183c-16,53 -37,57 -27,5c9,-50 51,-125 125,-220c33,-43 60,-81 60,-85c0,-42 -125,71 -175,157c-31,52 -69,204 -86,340c-18,154 -16,407 5,478c9,31 19,57 21,57c2,0 2,-42 -2,-93zm5397,48c15,-18 5,-35 -20,-35c-10,0 -22,5 -25,10c-7,11 12,40 25,40c4,0 13,-7 20,-15zm-80,-5c13,-9 13,-11 0,-20c-19,-12 -90,-13 -90,-1c0,9 43,29 65,30c6,0 17,-4 25,-9zm-8357,-67c4,-3 -2,-12 -13,-20c-29,-20 -27,-48 3,-37c50,18 181,9 305,-21c67,-16 122,-32 122,-35c0,-3 -23,-3 -52,-1c-35,2 -55,-1 -62,-10c-7,-9 -33,-14 -71,-15c-38,0 -91,-10 -145,-29c-76,-25 -85,-26 -94,-12c-9,15 -15,13 -45,-16l-33,-32l5,35c4,19 9,60 12,90c11,99 12,100 56,109c3,0 9,-2 12,-6zm3110,-84c-14,-15 -27,-19 -40,-15c-17,7 -17,8 1,22c11,8 29,14 40,14c20,0 20,0 -1,-21zm358,-104c24,-19 60,-38 79,-41c46,-9 62,-17 98,-54c17,-17 41,-30 55,-30c32,0 40,-10 20,-26c-16,-11 -16,-14 7,-34l25,-21l-35,6c-19,4 -54,20 -78,36c-49,33 -52,34 -52,14c0,-29 -23,-14 -101,64c-49,49 -79,87 -79,100c0,29 10,27 61,-14zm409,-85c0,-5 -23,-10 -51,-10c-31,0 -48,4 -44,10c3,6 26,10 51,10c24,0 44,-4 44,-10zm15,-80c4,-6 -7,-10 -25,-10c-18,0 -29,4 -25,10c3,6 15,10 25,10c10,0 22,-4 25,-10zm1652,-73c5,-30 3,-37 -11,-37c-9,0 -21,-12 -27,-26c-19,-51 -22,-14 -4,52c19,70 32,73 42,11z" fill="#fa7904" id="svg_2"/>
   <path d="m4843,4305c-29,-21 -29,-30 2,-60c15,-16 36,-25 55,-25c41,0 100,25 100,43c0,44 -113,74 -157,42z" fill="#fa7904" id="svg_3"/>
   <path d="m5523,4268c-30,-15 -29,-36 2,-44c37,-9 150,5 172,22c16,12 16,15 3,24c-20,13 -149,12 -177,-2z" fill="#fa7904" id="svg_4"/>
   <path d="m11685,3901c-7,-13 17,-24 40,-19c9,1 16,8 16,13c0,14 -48,19 -56,6z" fill="#fa7904" id="svg_5"/>
   <path d="m6972,3658c-14,-14 -16,-48 -2,-48c10,0 30,32 30,49c0,14 -13,14 -28,-1z" fill="#fa7904" id="svg_6"/>
   <path d="m6140,2473c0,-10 52,-63 63,-63c4,0 7,10 5,22c-2,13 -15,27 -35,35c-18,7 -33,10 -33,6z" fill="#fa7904" id="svg_7"/>
   <path d="m6370,2450c0,-10 -15,-11 -62,-6c-97,10 -57,-11 57,-30c138,-23 388,-25 435,-3l35,16l-50,12c-74,18 -415,27 -415,11z" fill="#fa7904" id="svg_8"/>
   <path d="m7610,2163c-31,-12 -41,-25 -29,-39c15,-19 39,-18 68,3c23,15 23,17 6,30c-20,14 -22,14 -45,6z" fill="#fa7904" id="svg_9"/>
   <path d="m7485,2120c28,-12 45,-12 45,0c0,6 -15,10 -32,9c-28,0 -30,-2 -13,-9z" fill="#fa7904" id="svg_10"/>
   <path d="m9360,2331c0,-22 25,-39 38,-27c8,8 -10,38 -26,44c-7,2 -12,-6 -12,-17z" fill="#fa7904" id="svg_11"/>
   <path d="m11088,2644c6,-11 20,-28 31,-38c18,-16 21,-17 21,-3c0,8 -14,26 -31,38c-28,20 -30,20 -21,3z" fill="#fa7904" id="svg_12"/>
   <path d="m1830,2333c0,-4 12,-21 27,-37c25,-27 27,-28 40,-10c11,14 11,21 1,30c-16,16 -68,29 -68,17z" fill="#fa7904" id="svg_13"/>
   <path d="m8720,2306c0,-46 16,-86 35,-86c19,0 19,24 -1,77c-20,52 -34,55 -34,9z" fill="#fa7904" id="svg_14"/>
   <path d="m8280,2220c0,-14 48,-35 58,-26c8,9 -26,36 -45,36c-7,0 -13,-5 -13,-10z" fill="#fa7904" id="svg_15"/>
   <path d="m11264,1879c-40,-14 -39,-31 2,-27c20,2 39,8 41,14c5,16 -18,23 -43,13z" fill="#fa7904" id="svg_16"/>
   <path d="m11565,1860c-4,-6 18,-10 59,-10c37,0 66,4 66,10c0,6 -26,10 -59,10c-33,0 -63,-4 -66,-10z" fill="#fa7904" id="svg_17"/>
   <path d="m11213,1510c16,-5 38,-5 50,0c17,7 10,9 -28,9c-43,-1 -46,-2 -22,-9z" fill="#fa7904" id="svg_18"/>
   <path d="m11280,2461c0,-12 2,-21 4,-21c2,0 12,-3 21,-6c13,-5 16,-2 13,17c-4,31 -38,39 -38,10z" fill="#fa7904" id="svg_19"/>
   <path d="m8125,2360c28,-12 45,-12 45,0c0,6 -15,10 -32,9c-28,0 -30,-2 -13,-9z" fill="#fa7904" id="svg_20"/>
   <path d="m5671,6034c-73,-7 -136,-16 -140,-20c-7,-8 293,2 331,12c15,3 25,10 22,15c-7,11 -45,10 -213,-7z" fill="#fa7904" id="svg_21"/>
   <path d="m3685,5729c-36,-4 -22,-6 50,-6c96,-1 108,2 35,9c-19,2 -57,0 -85,-3z" fill="#fa7904" id="svg_22"/>
   <path d="m7253,5723c26,-2 68,-2 95,0c26,2 4,3 -48,3c-52,0 -74,-1 -47,-3z" fill="#fa7904" id="svg_23"/>
   <path d="m4320,5565c0,-15 34,-85 41,-85c13,0 11,15 -8,55c-14,30 -33,47 -33,30z" fill="#fa7904" id="svg_24"/>
   <path d="m6455,5460c-4,-6 15,-10 50,-10c35,0 54,4 50,10c-3,6 -26,10 -50,10c-24,0 -47,-4 -50,-10z" fill="#fa7904" id="svg_25"/>
   <path d="m5528,5434c-7,-11 7,-50 21,-59c16,-9 14,28 -2,50c-8,10 -16,14 -19,9z" fill="#fa7904" id="svg_26"/>
   <path d="m5717,5100c6,-23 31,-46 40,-37c7,8 -24,57 -36,57c-5,0 -7,-9 -4,-20z" fill="#fa7904" id="svg_27"/>
   <path d="m7310,5010c-14,-5 66,-8 185,-8c119,0 199,3 185,8c-14,4 -97,8 -185,8c-88,0 -171,-4 -185,-8z" fill="#fa7904" id="svg_28"/>
   <path d="m6678,5000c-177,-9 -328,-28 -328,-41c0,-5 26,-9 58,-9c149,0 587,44 487,49c-11,1 -29,3 -40,5c-11,2 -91,0 -177,-4z" fill="#fa7904" id="svg_29"/>
   <path d="m9160,4940c0,-14 48,-35 58,-26c8,9 -26,36 -45,36c-7,0 -13,-5 -13,-10z" fill="#fa7904" id="svg_30"/>
   <path d="m5824,4932c-17,-12 -36,-74 -25,-85c22,-22 89,48 77,79c-6,15 -34,18 -52,6z" fill="#fa7904" id="svg_31"/>
   <path d="m6995,4900c-4,-6 13,-10 45,-10c32,0 49,4 45,10c-3,6 -24,10 -45,10c-21,0 -42,-4 -45,-10z" fill="#fa7904" id="svg_32"/>
   <path d="m4370,4841c-48,-10 -60,-18 -60,-42c0,-24 14,-24 113,0c77,18 95,26 85,36c-10,10 -102,14 -138,6z" fill="#fa7904" id="svg_33"/>
   <path d="m7485,4840c28,-12 45,-12 45,0c0,6 -15,10 -32,9c-28,0 -30,-2 -13,-9z" fill="#fa7904" id="svg_34"/>
   <path d="m9018,4818c-8,-21 2,-38 23,-38c22,0 23,4 9,31c-12,22 -26,25 -32,7z" fill="#fa7904" id="svg_35"/>
   <path d="m5582,4789c-86,-9 -152,-30 -152,-48c0,-15 10,-14 135,9c129,24 145,28 145,41c0,10 -10,10 -128,-2z" fill="#fa7904" id="svg_36"/>
   <path d="m1045,2730c-11,-18 5,-30 41,-30c40,0 44,12 9,28c-32,15 -42,15 -50,2z" fill="#fa7904" id="svg_37"/>
   <path d="m1381,2691c-19,-24 -44,-42 -61,-46c-16,-4 -32,-11 -36,-16c-10,-16 17,-39 45,-39l26,0l-25,-19l-24,-19l37,-7c62,-12 237,-1 247,14c19,31 -16,71 -62,71c-23,0 -28,4 -28,25c0,31 -41,75 -69,75c-11,0 -33,-17 -50,-39z" fill="#fa7904" id="svg_38"/>
   <path d="m12579,2719c-11,-7 -10,-12 8,-30c24,-24 57,-19 51,7c-4,21 -40,35 -59,23z" fill="#fa7904" id="svg_39"/>
   <path d="m512,2639c-17,-35 -38,-73 -46,-84c-22,-28 -32,-9 -41,72l-7,65l-24,-51c-38,-83 -113,-102 -127,-31c-8,35 -36,41 -55,10c-9,-16 -23,-20 -61,-20c-71,0 -98,13 -116,57c-22,53 -35,28 -35,-69l0,-78l298,0c286,1 537,12 550,25c12,11 -21,23 -82,30c-90,10 -96,12 -96,46c0,38 -10,37 -38,-6c-38,-59 -59,-46 -77,44l-11,53l-32,-63z" fill="#fa7904" id="svg_40"/>
   <path d="m12728,2683c12,-2 32,-2 45,0c12,2 2,4 -23,4c-25,0 -35,-2 -22,-4z" fill="#fa7904" id="svg_41"/>
   <path d="m952,2653c-11,-4 -62,-93 -62,-108c0,-7 194,-6 268,1l60,7l-51,26c-31,16 -57,37 -65,54c-12,25 -17,27 -75,26c-34,0 -68,-3 -75,-6z" fill="#fa7904" id="svg_42"/>
   <path d="m730,2620c-11,-7 -12,-12 -4,-20c16,-16 59,-8 59,10c0,18 -34,24 -55,10z" fill="#fa7904" id="svg_43"/>
   <path d="m20,1860c0,-5 16,-10 36,-10c21,0 33,4 29,10c-3,6 -19,10 -36,10c-16,0 -29,-4 -29,-10z" fill="#fa7904" id="svg_44"/>
   <path d="m260,1860c0,-6 27,-10 60,-10c33,0 60,4 60,10c0,6 -27,10 -60,10c-33,0 -60,-4 -60,-10z" fill="#fa7904" id="svg_45"/>
   <path d="m12323,1863c59,-2 154,-2 210,0c56,1 8,3 -108,3c-115,0 -161,-2 -102,-3z" fill="#fa7904" id="svg_46"/>
   <path d="m12109,1399c16,-6 28,-6 35,1c7,7 -1,10 -24,9c-33,0 -34,-1 -11,-10z" fill="#fa7904" id="svg_47"/>
   <path d="m1110,420c0,-5 25,-10 55,-10c30,0 55,5 55,10c0,6 -25,10 -55,10c-30,0 -55,-4 -55,-10z" fill="#fa7904" id="svg_48"/>
   <path d="m1643,423c82,-2 212,-2 290,0c78,1 12,3 -148,3c-159,0 -223,-2 -142,-3z" fill="#fa7904" id="svg_49"/>
   <path d="m2595,420c-4,-6 9,-10 32,-10c28,0 34,3 23,10c-20,13 -47,13 -55,0z" fill="#fa7904" id="svg_50"/>
   <path d="m3523,393c87,-2 227,-2 310,0c84,1 13,3 -158,3c-170,0 -239,-2 -152,-3z" fill="#fa7904" id="svg_51"/>
   <path d="m4250,390c0,-5 14,-10 31,-10c17,0 28,4 24,10c-3,6 -17,10 -31,10c-13,0 -24,-4 -24,-10z" fill="#fa7904" id="svg_52"/>
   <path d="m4483,393c26,-2 67,-2 90,0c23,2 2,3 -48,3c-49,0 -68,-1 -42,-3z" fill="#fa7904" id="svg_53"/>
   <path d="m4923,393c42,-2 112,-2 155,0c42,1 7,3 -78,3c-85,0 -120,-2 -77,-3z" fill="#fa7904" id="svg_54"/>
   <path d="m10575,322c-32,-7 -47,-23 -35,-38c13,-14 61,-2 80,21c12,15 -12,24 -45,17z" fill="#fa7904" id="svg_55"/>
   <path d="m11745,320c-121,-4 -227,-9 -235,-10c-96,-17 799,-38 1053,-25c81,4 147,11 147,15c0,19 -612,32 -965,20z" fill="#fa7904" id="svg_56"/>
   <path d="m8903,314c3,-3 22,-6 42,-6c20,0 39,3 42,6c4,3 -15,6 -42,6c-27,0 -46,-3 -42,-6z" fill="#fa7904" id="svg_57"/>
   <path d="m9208,313c39,-2 105,-2 145,0c39,1 7,3 -73,3c-80,0 -112,-2 -72,-3z" fill="#fa7904" id="svg_58"/>
   <path d="m9610,310c0,-5 14,-10 31,-10c17,0 28,4 24,10c-3,6 -17,10 -31,10c-13,0 -24,-4 -24,-10z" fill="#fa7904" id="svg_59"/>
   <path d="m10265,311c9,-16 114,-33 158,-26c52,9 63,15 46,26c-19,12 -212,12 -204,0z" fill="#fa7904" id="svg_60"/>
   <path d="m100,291c-141,-13 -131,-37 21,-52c129,-13 5698,-23 6039,-12c230,8 223,8 -310,16c-300,4 -961,12 -1470,17c-3299,35 -4172,42 -4280,31z" fill="#fa7904" id="svg_61"/>
   <path d="m11090,290c-19,-6 -12,-8 29,-9c30,-1 52,1 50,3c-11,9 -57,13 -79,6z" fill="#fa7904" id="svg_62"/>
   <path d="m6618,228c16,-8 28,-8 45,0c19,9 17,11 -23,11c-40,0 -42,-2 -22,-11z" fill="#fa7904" id="svg_63"/>
   <path d="m6803,233c15,-2 39,-2 55,0c15,2 2,4 -28,4c-30,0 -43,-2 -27,-4z" fill="#fa7904" id="svg_64"/>
  </g>
 </g>
</svg>