<svg id="Capa_1" enable-background="new 0 0 511.701 511.701" height="512" viewBox="0 0 511.701 511.701" width="512" xmlns="http://www.w3.org/2000/svg"><g><g><path d="m443.745 216.065-37.045-73.862c-4.104-8.183-12.475-13.349-21.629-13.349h-171.934c-7.643 0-14.837 3.611-19.403 9.74l-57.723 77.472-33.291 42.934h366.66z" fill="#fef0ae"/><path d="m313.006 138.594c4.566-6.129 11.76-9.74 19.403-9.74h-119.272c-7.643 0-14.837 3.611-19.403 9.74l-57.723 77.472-33.291 42.934h119.273l33.291-42.934z" fill="#fee45a"/><path d="m410.18 216.07-26.92-53.68c-1.09-2.17-3.3-3.54-5.72-3.54h-11.78l-18.237 14.926v65.031l18.237 10.474h62.35z" fill="#b8ddff"/><path d="m365.76 216.07v33.21h-218.58l26.24-33.21 40.71-54.64c1.21-1.62 3.11-2.58 5.13-2.58h146.5z" fill="#d5eaff"/><path d="m395.39 216.07h-120.67l-25.651 25.71v79.046l25.651 11.334h120.67l25.303-26.897v-53.223c0-1.791-.588-3.532-1.673-4.956z" fill="#fedf30"/><path d="m490.951 246.118 4.845-5.863c-1.707-13.633-13.34-24.185-27.436-24.185h-72.97v116.09h100.63v-54.41l-5.069-2.577z" fill="#fee97d"/><path d="m158.65 216.07h-88.14c-31.7 0-57.4 25.7-57.4 57.4v40.91 17.78h126.94l41.43-10.363v-81.547z" fill="#fee97d"/><g id="XMLID_376_"><g><path d="m219.26 158.85c-2.02 0-3.92.96-5.13 2.58l-40.71 54.64-26.24 33.21h82.349l25.754-33.214 42.631-57.216z" fill="#b8ddff"/></g></g><path d="m345.005 332.157v.003h50.385l25.303-26.897v-48.794c-41.734-.001-75.688 33.953-75.688 75.688z" fill="#fed402"/><g fill="#fee45a"><path d="m496.021 324.823c-3.701-38.306-36.067-68.354-75.327-68.354-8.872 0-17.386 1.548-25.303 4.365v71.327h100.63z"/><path d="m181.481 321.797v-17.606c-11.148-27.928-38.453-47.723-70.312-47.723-41.734 0-75.688 33.954-75.688 75.688v.003h104.57z"/><path d="m274.72 216.07v116.09h-134.67v-44.19-38.11c0-1.47.39-2.9 1.13-4.16l17.47-29.63z"/></g><path d="m140.05 262.208v25.762 44.19h46.808c0-.001 0-.002 0-.003 0-31.511-19.361-58.575-46.808-69.949z" fill="#fedf30"/><g id="XMLID_375_"><g><path d="m504.2 321.31v17.78c0 3.82-3.1 6.92-6.93 6.92h-484.16c-3.1 0-5.61-2.51-5.61-5.61v-20.4c0-3.1 2.51-5.62 5.61-5.62h484.16c3.83 0 6.93 3.1 6.93 6.93z" fill="#d7d0d6"/></g></g><g><path d="m35.48 332.157c0 4.733.458 9.358 1.293 13.853h148.792c.835-4.495 1.293-9.12 1.293-13.853 0-6.123-.75-12.072-2.129-17.777h-147.12c-1.379 5.705-2.129 11.654-2.129 17.777z" fill="#b8b2b8"/><circle cx="111.169" cy="332.157" fill="#736572" r="50.689"/><path d="m111.169 332.157c0-18.759 10.212-35.134 25.358-43.899-7.457-4.316-16.122-6.789-25.358-6.789-27.995 0-50.688 22.694-50.688 50.689s22.694 50.689 50.688 50.689c9.236 0 17.906-2.476 25.363-6.792-15.146-8.767-25.363-25.14-25.363-43.898z" fill="#615260"/><path d="m111.169 352.845c-11.407 0-20.688-9.281-20.688-20.688s9.281-20.688 20.688-20.688c11.408 0 20.689 9.281 20.689 20.688s-9.281 20.688-20.689 20.688z" fill="#f9f7f8"/><path d="m345.005 332.157c0 4.733.458 9.358 1.293 13.853h148.791c.835-4.495 1.293-9.12 1.293-13.853 0-6.123-.75-12.072-2.129-17.777h-147.12c-1.379 5.705-2.128 11.654-2.128 17.777z" fill="#b8b2b8"/><circle cx="420.693" cy="332.157" fill="#736572" r="50.689"/><path d="m111.169 332.157c0-7.203 1.509-14.051 4.219-20.253-1.363-.284-2.773-.435-4.219-.435-11.407 0-20.688 9.281-20.688 20.688s9.281 20.688 20.688 20.688c1.446 0 2.867-.151 4.23-.435-2.71-6.202-4.23-13.05-4.23-20.253z" fill="#d7d0d6"/><path d="m420.693 332.157c0-18.759 10.213-35.133 25.359-43.899-7.458-4.316-16.123-6.79-25.359-6.79-27.995 0-50.688 22.694-50.688 50.689s22.694 50.689 50.688 50.689c9.236 0 17.905-2.476 25.363-6.792-15.147-8.766-25.363-25.139-25.363-43.897z" fill="#615260"/><path d="m420.693 352.845c-11.407 0-20.688-9.281-20.688-20.688s9.281-20.688 20.688-20.688c11.408 0 20.689 9.281 20.689 20.688s-9.281 20.688-20.689 20.688z" fill="#f9f7f8"/><path d="m420.693 332.157c0-7.202 1.51-14.049 4.222-20.252-1.364-.284-2.776-.436-4.222-.436-11.407 0-20.688 9.281-20.688 20.688s9.281 20.688 20.688 20.688c1.447 0 2.859-.152 4.224-.436-2.713-6.203-4.224-13.051-4.224-20.252z" fill="#d7d0d6"/><g id="XMLID_377_"><g><path d="m55.63 218.03v32.56c0 10.27-8.33 18.6-18.61 18.6h-23.75c1.81-24.65 19.2-44.97 42.36-51.16z" fill="#fedf30"/><path d="m496.02 243.72v34.03h-18.03c-4.75 0-8.61-3.86-8.61-8.61v-20.28c0-4.75 3.86-8.61 8.61-8.61h17.81c.15 1.14.22 2.3.22 3.47z" fill="#e94444"/></g></g></g></g><g><path d="m111.169 303.968c-15.543 0-28.188 12.646-28.188 28.188s12.646 28.188 28.188 28.188c15.544 0 28.189-12.646 28.189-28.188s-12.645-28.188-28.189-28.188zm0 41.377c-7.272 0-13.188-5.917-13.188-13.188s5.916-13.188 13.188-13.188 13.189 5.917 13.189 13.188-5.917 13.188-13.189 13.188z"/><path d="m420.692 303.968c-15.543 0-28.188 12.646-28.188 28.188s12.646 28.188 28.188 28.188c15.544 0 28.189-12.646 28.189-28.188s-12.645-28.188-28.189-28.188zm0 41.377c-7.272 0-13.188-5.917-13.188-13.188s5.916-13.188 13.188-13.188 13.189 5.917 13.189 13.188-5.916 13.188-13.189 13.188z"/><path d="m503.518 308.323v-64.601c0-19.385-15.771-35.156-35.157-35.156h-19.986l-11.886-23.699c-1.855-3.702-6.361-5.198-10.066-3.342-3.702 1.857-5.199 6.364-3.342 10.066l8.513 16.974h-16.781l-24.848-49.541c-2.372-4.731-7.135-7.671-12.428-7.671h-158.273c-4.371 0-8.538 2.093-11.147 5.597l-38.458 51.615h-18.706l48.797-65.491c3.135-4.208 8.141-6.721 13.389-6.721h171.931c6.356 0 12.075 3.529 14.925 9.211l8.755 17.455c1.857 3.702 6.364 5.199 10.066 3.341 3.703-1.857 5.199-6.364 3.342-10.067l-8.755-17.454c-5.409-10.786-16.266-17.486-28.333-17.486h-171.933c-9.963 0-19.465 4.77-25.418 12.759l-55.473 74.453h-61.731c-35.787 0-64.901 29.115-64.901 64.901v35.787c-3.389 2.374-5.614 6.3-5.614 10.742v20.405c0 7.23 5.883 13.113 13.113 13.113h43.915c3.257 8.279 8.4 15.758 15.204 21.885 10.776 9.703 24.474 14.949 38.866 14.949 1.034 0 2.074-.027 3.115-.082 23.436-1.228 42.931-16.242 51.063-36.752h201.306c8.535 21.546 29.564 36.832 54.111 36.832s45.576-15.286 54.111-36.832h22.47c7.955 0 14.427-6.472 14.427-14.426v-17.778c0-5.717-3.35-10.653-8.183-12.986zm-15-38.075h-10.524c-.612 0-1.111-.499-1.111-1.111v-20.274c0-.613.499-1.112 1.111-1.112h10.524zm-3.271-37.498h-7.254c-8.884 0-16.111 7.228-16.111 16.112v20.274c0 8.884 7.228 16.111 16.111 16.111h10.524v21.634h-15.418c-9.424-19.461-29.373-32.914-52.406-32.914-6.208 0-12.188.987-17.802 2.796v-53.199h65.469c7.069.001 13.288 3.666 16.887 9.186zm-87.216-24.185h-24.769v-42.211h3.598zm-115.812 0v-42.211h76.044v42.211zm-62.404-42.211h47.403v42.211h-78.855zm-56.218 140.528c-3.78-7.858-9.274-14.747-16.049-20.169v-36.858c0-.123.033-.243.095-.348l15.293-25.941h104.283v83.316zm-115.471-77.991v21.696c0 6.124-4.981 11.105-11.104 11.105h-14.993c3.487-14.354 13.193-26.294 26.097-32.801zm-33.126 109.622v-16.631h38.888c-.771 4.33-1.065 8.792-.828 13.319.058 1.112.156 2.215.275 3.313h-38.335zm98.429 36.773c-11.501.606-22.585-3.315-31.158-11.035-8.573-7.719-13.627-18.315-14.23-29.835-.912-17.406 8.639-33.56 24.331-41.154 3.729-1.805 5.288-6.29 3.483-10.018-1.804-3.728-6.287-5.289-10.019-3.484-12.127 5.869-21.523 15.538-27.106 27.139-.111-.005-.22-.017-.332-.017h-37.785v-30.19h16.408c14.395 0 26.104-11.71 26.104-26.105v-26.471c2.412-.36 4.878-.55 7.389-.55h75.008l-10.802 18.325c-1.422 2.412-2.173 5.166-2.173 7.965v28.175c-3.273-1.287-6.695-2.301-10.25-2.991-4.073-.788-8.003 1.867-8.792 5.933-.79 4.066 1.866 8.003 5.933 8.792 19.485 3.783 33.821 20.287 34.86 40.134 1.247 23.78-17.088 44.142-40.869 45.387zm55.575-36.773c.336-3.075.441-6.214.274-9.401-.128-2.452-.411-4.864-.832-7.23h142.428c4.143 0 7.5-3.358 7.5-7.5s-3.357-7.5-7.5-7.5h-28.656v-83.316h105.673v60.561c-8.357 5.726-15.155 13.569-19.604 22.756h-25.45c-4.143 0-7.5 3.358-7.5 7.5s3.357 7.5 7.5 7.5h20.594c-.598 3.338-.927 6.768-.927 10.275 0 2.149.126 4.268.354 6.356h-193.854zm251.689 36.832c-23.814 0-43.188-19.374-43.188-43.188s19.374-43.188 43.188-43.188 43.188 19.374 43.188 43.188-19.373 43.188-43.188 43.188zm76.008-36.832h-18.173c.228-2.089.354-4.208.354-6.356 0-3.507-.329-6.937-.927-10.275h18.746z"/><path d="m241.569 241.779h-5.387c-4.143 0-7.5 3.358-7.5 7.5s3.357 7.5 7.5 7.5h5.387c4.143 0 7.5-3.358 7.5-7.5s-3.357-7.5-7.5-7.5z"/></g></g></svg>