<svg id="Capa_1" enable-background="new 0 0 514.633 514.633" height="512" viewBox="0 0 514.633 514.633" width="512" xmlns="http://www.w3.org/2000/svg"><g><g><path d="m462.726 182.864h-294.745l-78.753 39.252-30.736 15.574v52.338c6.759-2.602 14.091-4.042 21.756-4.042 33.5 0 60.76 27.26 60.76 60.76 0 2.26-.12 4.49-.37 6.68h212.11c-.24-2.19-.36-4.42-.36-6.68 0-33.5 27.26-60.76 60.76-60.76s60.76 27.26 60.76 60.76c0 2.1-.1 4.17-.31 6.21v.47h21.86c6.45 0 11.67-5.22 11.67-11.67v-89.64z" fill="#fef0ae"/><path d="m462.726 182.864h-294.745l-78.753 39.252-48.323 24.485-3.679 7.931-21.202 36.644-8.526 8.82v45.64c0 4.3 3.49 7.79 7.8 7.79h4.55v-.04c-.24-2.18-.36-4.39-.36-6.64 0-33.5 27.25-60.76 60.76-60.76 13.07 0 25.179 4.163 35.1 11.213l22.35-11.325 78.753-39.252h287.154z" fill="#fee45a"/><g><g><g id="XMLID_233_"><g><path d="m368.899 254.056v65.65l-133.68-.54v-67.05h133.68z" fill="#fee97d"/></g></g></g><path d="m235.219 319.166-145.99-.6v-66.45h145.99z" fill="#fee97d"/></g><path d="m371.449 252.116h135.68v67.59h-135.68z" fill="#fee97d"/><path d="m507.129 193.946v58.17h-138.23-133.68-145.99v-30l34.51-71.78c3.88-8.08 12.05-13.21 21.01-13.21h305.56c10.45 0 20.48 2.87 29.14 8.04 8.65 5.16 15.94 12.64 20.89 21.84 4.46 8.28 6.79 17.54 6.79 26.94z" fill="#f9f7f8"/><path d="m242.046 150.336c3.88-8.08 12.05-13.21 21.01-13.21h-118.307c-8.96 0-17.13 5.13-21.01 13.21l-34.51 71.78v30h118.307v-16.156c0-9.112 2.05-18.108 5.999-26.321z" fill="#efedef"/><path d="m89.229 252.116v34.544c9.623 1.437 18.516 5.136 26.12 10.54l22.35-11.325 69.837-33.758h-118.307z" fill="#fee45a"/><path d="m141.009 346.746c0 2.26-.12 4.49-.37 6.68h-120.79v-.04c-.24-2.18-.36-4.39-.36-6.64 0-33.5 27.25-60.76 60.76-60.76 33.5 0 60.76 27.26 60.76 60.76z" fill="#efedef"/><path d="m102.653 295.75c1.709-1.11 3.476-2.137 5.297-3.073-8.308-4.271-17.736-6.691-27.701-6.691-33.51 0-60.76 27.26-60.76 60.76 0 2.25.12 4.46.36 6.64v.04h51.706 3.654 55.347c.289-2.186.453-4.411.453-6.675 0-19.821-11.421-37.021-28.026-45.374-2.228-1.121-2.421-4.269-.33-5.627z" fill="#e5e1e5"/><circle cx="80.247" cy="346.75" fill="#736572" r="30.762"/><g id="XMLID_232_"><g><g><path d="m473.909 346.746c0 2.1-.1 4.17-.31 6.21v.47h-120.85c-.24-2.19-.36-4.42-.36-6.68 0-33.5 27.26-60.76 60.76-60.76s60.76 27.26 60.76 60.76z" fill="#efedef"/></g></g></g><path d="m435.657 295.35 5.19-2.675c-8.308-4.272-17.732-6.69-27.698-6.69-33.5 0-60.76 27.26-60.76 60.76 0 2.26.12 4.49.36 6.68h46.209 9.151 55.35c.289-2.186.453-4.411.453-6.675 0-19.876-11.485-37.117-28.166-45.444-2.459-1.227-2.531-4.697-.089-5.956z" fill="#e5e1e5"/><circle cx="413.15" cy="346.75" fill="#736572" r="30.762"/><path d="m80.249 346.75c0-11.384 6.196-21.321 15.387-26.641-4.526-2.619-9.784-4.12-15.39-4.12-16.989 0-30.762 13.772-30.762 30.762 0 16.989 13.772 30.762 30.762 30.762 5.605 0 10.87-1.504 15.396-4.124-9.191-5.321-15.393-15.255-15.393-26.639z" fill="#615260"/><path d="m413.152 346.75c0-11.384 6.201-21.319 15.392-26.638-4.526-2.619-9.789-4.123-15.394-4.123-16.989 0-30.762 13.772-30.762 30.762 0 16.989 13.772 30.762 30.762 30.762 5.605 0 10.872-1.506 15.398-4.125-9.192-5.321-15.396-15.254-15.396-26.638z" fill="#615260"/><g id="XMLID_210_"><g><path d="m477.129 194.466v26.92c0 .41-.32.73-.72.73h-107.51v-54.99h81.41c11.35 0 21.61 7.13 25.41 18.21 1.01 2.93 1.41 6.03 1.41 9.13z" fill="#91ccff"/><path d="m368.899 167.126v54.99h-107.51c-.4 0-.73-.32-.73-.73v-53.54c0-.4.33-.72.73-.72z" fill="#b8ddff"/><path d="m226.259 167.846v53.54c0 .41-.33.73-.73.73h-101.85c-.54 0-.89-.56-.66-1.04l25.74-53.54c.12-.25.38-.41.66-.41h76.11c.4 0 .73.32.73.72z" fill="#b8ddff"/><path d="m225.529 167.126h-76.11c-.28 0-.54.16-.66.41l-25.74 53.54c-.23.48.12 1.04.66 1.04h85.465c1.005-4.293 2.469-8.479 4.391-12.477l12.724-26.466v-15.327c0-.4-.33-.72-.73-.72z" fill="#91ccff"/></g></g><g id="XMLID_230_"><g><path d="m507.129 278.606v50.4h-24.18c-4.99 0-9.04-4.69-9.04-10.48v-29.44c0-5.79 4.05-10.48 9.04-10.48z" fill="#e94444"/></g></g><g id="XMLID_231_"><g><path d="m41.479 292.326c0 4.24-3.43 7.67-7.66 7.67h-26.32v-23.39c0-8.02 4.51-15.36 11.67-18.99l21.74-11.02z" fill="#fedf30"/></g></g></g><g><path d="m506.943 163.449c-11.234-20.866-32.937-33.829-56.637-33.829h-6.396c-4.143 0-7.5 3.358-7.5 7.5s3.357 7.5 7.5 7.5h6.396c18.174 0 34.814 9.939 43.43 25.94 3.857 7.163 5.896 15.249 5.896 23.385v50.672h-326.661c-4.142 0-7.5 3.358-7.5 7.5s3.358 7.5 7.5 7.5h54.746v52.59h-88.628c-9.183-15.583-24.367-27.218-42.36-31.696v-20.894h44.28c4.142 0 7.5-3.358 7.5-7.5s-3.358-7.5-7.5-7.5h-44.28v-20.792l33.771-70.243c2.618-5.444 8.212-8.962 14.254-8.962h267.196c4.143 0 7.5-3.358 7.5-7.5s-3.357-7.5-7.5-7.5h-267.197c-11.771 0-22.673 6.855-27.772 17.463l-33.41 69.493-67.791 34.348c-9.734 4.932-15.78 14.774-15.78 25.685v69.022c0 8.435 6.862 15.297 15.297 15.297h29.423c5.646 14.096 19.438 24.083 35.527 24.083s29.881-9.987 35.527-24.083h261.849c5.646 14.096 19.438 24.083 35.527 24.083s29.881-9.987 35.527-24.083h46.784c10.572 0 19.173-8.601 19.173-19.173v-147.81c-.001-10.609-2.66-21.155-7.691-30.496zm-7.31 158.056h-16.684c-.446 0-1.538-1.044-1.538-2.98v-29.439c0-1.936 1.092-2.98 1.538-2.98h16.684zm0-50.4h-16.684c-9.119 0-16.538 8.066-16.538 17.98v15.041c-12.521-15.614-31.737-25.638-53.262-25.638-13.527 0-26.135 3.971-36.754 10.785v-29.655h123.237v11.487zm-48.243 74.823c-.44-20.718-17.419-37.44-38.241-37.44s-37.801 16.722-38.241 37.44h-15c.443-28.99 24.148-52.44 53.241-52.44s52.798 23.45 53.241 52.44zm-165.603-18.719c4.143 0 7.5-3.358 7.5-7.5s-3.357-7.5-7.5-7.5h-43.071v-52.59h118.679v42.697c-2.643 3.074-5.019 6.382-7.088 9.894h-36.559c-4.143 0-7.5 3.358-7.5 7.5s3.357 7.5 7.5 7.5h30.004c-1.779 5.944-2.767 12.223-2.844 18.72h-196.421c-.077-6.497-1.065-12.776-2.844-18.72h140.144zm-152.3 18.719h-15c-.44-20.718-17.419-37.44-38.241-37.44s-37.801 16.722-38.241 37.44h-15c.443-28.99 24.148-52.44 53.241-52.44s52.799 23.451 53.241 52.44zm-118.487-19.247v-19.185h9.453c-4.093 5.8-7.317 12.254-9.453 19.185zm65.247-48.192c-11.265 0-21.891 2.76-31.266 7.612v-35.183l32.748-16.592v44.2c-.495-.01-.985-.037-1.482-.037zm-57.687-14.184 11.421-5.787v33.811c0 .092-.075.166-.166.166h-18.815v-15.886c0-5.227 2.897-9.942 7.56-12.304zm57.687 105.707c-12.827 0-23.262-10.435-23.262-23.262s10.435-23.262 23.262-23.262 23.262 10.435 23.262 23.262-10.436 23.262-23.262 23.262zm332.902 0c-12.826 0-23.262-10.435-23.262-23.262s10.436-23.262 23.262-23.262 23.262 10.435 23.262 23.262-10.435 23.262-23.262 23.262zm82.311-24.084h-14.07c-.039-3.267-.294-6.483-.779-9.625.766.119 1.542.201 2.338.201h16.684v5.251c0 2.301-1.872 4.173-4.173 4.173z"/><path d="m149.415 159.621c-3.144 0-6.054 1.831-7.416 4.663l-25.741 53.541c-1.233 2.565-1.065 5.536.45 7.945s4.119 3.848 6.966 3.848h101.857c4.537 0 8.229-3.691 8.229-8.228v-53.541c0-4.537-3.691-8.228-8.229-8.228zm69.345 54.997h-84.316l19.229-39.997h65.087z"/><path d="m261.386 159.621c-4.537 0-8.228 3.691-8.228 8.228v53.541c0 4.537 3.691 8.228 8.228 8.228h215.019c4.537 0 8.229-3.691 8.229-8.228v-26.927c0-4.154-.612-8.044-1.818-11.563-.001 0-.001-.001-.001-.001-4.778-13.923-17.841-23.277-32.506-23.277h-188.923zm6.772 15h93.237v39.997h-93.237zm200.468 13.146c.668 1.949 1.007 4.202 1.007 6.695v20.155h-93.237v-39.997h73.912c8.257.001 15.62 5.284 18.318 13.147z"/><path d="m207.522 285.872c4.142 0 7.5-3.358 7.5-7.5s-3.358-7.5-7.5-7.5h-7.508c-4.142 0-7.5 3.358-7.5 7.5s3.358 7.5 7.5 7.5z"/></g></g></svg>